PathFileType	4	(X/Y/Z)	..\data\2014001\dynamic\2014001_C4_04.trc
DataRate	CameraRate	NumFrames	NumMarkers	Units	OrigDataRate	OrigDataStartFrame	OrigNumFrames
100.000000	100.000000	4	52	mm	100.000000	96	155
Frame#	Time	L_IAS			L_IPS			R_IPS			R_IAS			L_FTC			L_FLE			L_FME			L_FAX			L_TTC			L_FAL			L_TAM			L_FCC			L_FM1			L_FM2			L_FM5			R_FTC			R_FLE			R_FME			R_FAX			R_TTC			R_FAL			R_TAM			R_FCC			R_FM1			R_FM2			R_FM5			CV7			TV10			SXS			SJN			L_SIA			L_SRS			L_SAA			L_SAE			L_HLE			L_HME			L_UOA			L_RSP			L_UHE			L_HM2			L_HM5			R_SIA			R_SRS			R_SAA			R_SAE			R_HLE			R_HME			R_UOA			R_RSP			R_UHE			R_HM2			R_HM5			
		X1	Y1	Z1	X2	Y2	Z2	X3	Y3	Z3	X4	Y4	Z4	X5	Y5	Z5	X6	Y6	Z6	X7	Y7	Z7	X8	Y8	Z8	X9	Y9	Z9	X10	Y10	Z10	X11	Y11	Z11	X12	Y12	Z12	X13	Y13	Z13	X14	Y14	Z14	X15	Y15	Z15	X16	Y16	Z16	X17	Y17	Z17	X18	Y18	Z18	X19	Y19	Z19	X20	Y20	Z20	X21	Y21	Z21	X22	Y22	Z22	X23	Y23	Z23	X24	Y24	Z24	X25	Y25	Z25	X26	Y26	Z26	X27	Y27	Z27	X28	Y28	Z28	X29	Y29	Z29	X30	Y30	Z30	X31	Y31	Z31	X32	Y32	Z32	X33	Y33	Z33	X34	Y34	Z34	X35	Y35	Z35	X36	Y36	Z36	X37	Y37	Z37	X38	Y38	Z38	X39	Y39	Z39	X40	Y40	Z40	X41	Y41	Z41	X42	Y42	Z42	X43	Y43	Z43	X44	Y44	Z44	X45	Y45	Z45	X46	Y46	Z46	X47	Y47	Z47	X48	Y48	Z48	X49	Y49	Z49	X50	Y50	Z50	X51	Y51	Z51	X52	Y52	Z52	

97	0.96	1174.57666015625	853.4803466796877	-438.6878051757814	1005.143737792969	899.979675292969	-345.0743408203126	1010.191162109375	891.5137329101565	-256.2341308593751	1189.48095703125	860.3872070312502	-200.4136199951172	1075.791625976563	783.472595214844	-490.9044799804689	964.0555419921877	447.8389892578126	-442.6845092773439	992.7283325195315	432.3059387207032	-332.1068725585938	926.1981201171877	395.4543762207032	-443.7613220214845	979.0022583007815	356.7290954589844	-400.509002685547	799.503845214844	97.3679122924805	-390.3939819335939	826.4326782226565	104.183219909668	-305.0191040039063	749.0363159179689	73.79174041748048	-343.7390136718751	923.9600219726565	29.18784713745118	-320.3689575195313	933.3501586914065	34.92221832275391	-382.9927062988282	875.6472778320315	24.70022773742676	-425.2443237304689	1106.30712890625	759.6832885742189	-133.0403442382813	1251.6259765625	436.7876281738282	-156.916976928711	1278.14013671875	432.0096130371095	-276.3140258789063	1261.065795898438	373.6746520996094	-155.2123260498047	1329.65478515625	395.9940795898439	-195.767318725586	1398.674560546875	84.3701629638672	-188.1007385253907	1435.8310546875	123.2411880493164	-263.5205993652344	1394.069458007813	30.66493606567384	-251.4334716796876	1555.296142578125	122.7432708740235	-229.4436492919922	1540.104125976563	124.3472518920899	-173.762435913086	1501.253295898438	79.48219299316408	-144.3387451171875	1038.525024414063	1359.942138671875	-306.9303894042969	981.1785278320315	1126.245971679688	-317.0776977539063	1217.921508789063	1138.405395507813	-313.5779724121094	1168.440551757813	1299.789794921875	-304.7232666015626	987.2480468750002	1170.244995117188	-419.1028137207032	1003.855285644531	1300.845092773438	-403.9475097656251	1092.1962890625	1303.909301757813	-506.3927612304689	1128.16943359375	1316.284545898438	-482.8895874023439	1178.223999023438	1042.085815429688	-577.9921264648439	1148.516967773438	993.7961425781252	-513.1233520507814	1157.360595703125	991.7470703125002	-563.5114135742189	1359.784057617188	898.0675048828127	-472.4069824218751	1349.29541015625	869.0954589843752	-546.4315795898439	1431.971069335938	853.5925292968752	-455.1393432617189	1392.23291015625	803.9506835937502	-534.9279174804689	967.3972167968752	1163.181396484375	-212.0265655517579	994.1158447265627	1286.619506835938	-225.8904876708985	1062.226196289063	1283.703735351563	-118.2703857421875	1112.882080078125	1289.36669921875	-123.9407806396485	1025.512573242188	995.1448364257815	-67.91826629638673	1006.918701171875	983.3696899414065	-147.4329071044922	996.476989746094	980.0966796875002	-101.728385925293	1074.331298828125	771.6872558593752	-78.76854705810548	1013.134826660156	784.8793945312502	-25.07007408142091	1074.029418945313	677.0670166015626	-56.63908004760744	982.965515136719	710.3779907226564	-24.8807601928711	
98	0.97	1189.610595703125	851.5449829101565	-438.2983703613282	1020.9091796875	897.4632568359377	-343.0269470214844	1026.17431640625	888.762390136719	-254.3764343261719	1205.78271484375	858.1299438476565	-200.0104064941407	1089.997314453125	782.1231079101565	-490.3680419921876	975.2197875976565	447.7903747558595	-443.2588500976564	1003.688293457031	431.5642089843751	-332.4779357910157	936.3217773437502	396.0450134277345	-444.4576110839845	988.258972167969	356.0811767578126	-401.3552551269532	801.7583007812502	101.2227325439453	-392.1770629882814	828.6431274414065	107.3292770385742	-306.6648864746094	750.5215454101564	78.91181945800783	-345.5144042968751	924.0059814453127	29.18431282043458	-320.7680053710938	933.853210449219	34.67987060546876	-383.4915466308594	876.230651855469	24.55121612548829	-425.7490844726564	1123.36083984375	757.1484375000001	-132.0525817871094	1270.363647460938	435.4978637695314	-157.5028076171875	1296.205810546875	431.4350891113282	-276.9697265625001	1280.188110351563	372.2522277832032	-156.0525207519532	1348.440551757813	395.2673950195314	-196.9499053955079	1418.601928710938	83.70594787597658	-190.4087066650391	1455.261962890625	122.8519897460938	-265.8626403808594	1413.481689453125	30.35869216918946	-253.8407745361329	1574.81787109375	122.4560852050782	-232.8346710205079	1560.232666015625	123.5402526855469	-176.9656524658203	1521.698364257813	78.38172149658205	-147.615463256836	1053.269653320313	1357.363403320313	-305.4083557128907	995.8482055664065	1123.735229492188	-315.6227416992188	1233.110717773438	1136.115844726563	-312.1182250976563	1183.344848632813	1297.297729492188	-303.1053161621094	1002.204956054688	1167.700927734375	-417.5514526367189	1018.750244140625	1298.410888671875	-402.4649353027345	1107.188354492188	1301.319458007813	-504.8292541503907	1143.07568359375	1313.79296875	-481.1957092285157	1194.345825195313	1039.969360351563	-576.4156494140626	1165.007080078125	991.4863281250002	-511.4819946289064	1173.787841796875	989.430603027344	-561.9044799804689	1377.198608398438	897.930847167969	-470.7133178710939	1367.076049804688	868.825378417969	-544.7221069335939	1449.913452148438	854.465270996094	-453.4679565429689	1410.7744140625	804.2318115234377	-533.1450195312501	982.2530517578127	1160.365356445313	-210.8417053222657	1008.844848632813	1283.954467773438	-224.5321044921876	1076.73974609375	1281.0615234375	-116.8260498046875	1127.393676757813	1286.780151367188	-122.322494506836	1039.21484375	992.6570434570315	-67.06643676757814	1020.7734375	981.151306152344	-146.6361999511719	1010.197937011719	977.9043579101565	-101.0226745605469	1086.339233398438	768.8958129882815	-78.16548919677736	1025.248168945313	782.5927734375002	-24.42428588867188	1085.103515625	674.2291870117189	-56.25499725341798	994.5078735351565	708.3826293945314	-24.17271232604981	
99	0.98	1205.028564453125	849.708923339844	-437.8412170410157	1037.040283203125	895.0711669921877	-340.9813232421876	1042.491943359375	886.2014160156252	-252.5008392333985	1222.45751953125	856.232360839844	-199.5477447509766	1104.627319335938	780.7634277343752	-489.644744873047	987.3148193359377	447.6045532226564	-443.9313964843751	1015.673400878906	430.5271301269532	-332.9556579589844	947.2731933593752	396.5830078125001	-445.2205810546876	998.366394042969	355.3036804199219	-402.4531250000001	804.441833496094	105.4637985229492	-393.9620971679689	831.519958496094	110.7013549804688	-308.4097290039063	752.5863647460939	84.59240722656251	-347.1499633789063	924.0010375976565	29.11228561401368	-321.1185302734376	934.2304687500002	34.34675979614259	-383.9505004882813	876.7495117187502	24.47974395751954	-426.1569213867189	1140.979125976563	754.9911499023439	-130.9695739746094	1289.731201171875	434.6592407226564	-158.0788116455078	1314.858032226563	431.2660522460939	-277.4721984863282	1299.524047851563	371.1267700195313	-156.8231964111328	1367.456298828125	394.3249511718751	-198.2415618896485	1435.37060546875	82.31343841552736	-192.7853393554688	1471.837036132813	121.1997985839844	-268.4039306640626	1428.971069335938	29.52251052856446	-256.2545776367188	1591.255737304688	119.6152801513672	-236.4232788085938	1577.32763671875	120.3817977905274	-180.3310852050782	1538.649780273438	75.50933837890626	-150.9940338134766	1068.067138671875	1354.899047851563	-303.7279052734376	1010.650268554688	1121.307373046875	-314.0383911132813	1248.472778320313	1134.053833007813	-310.5676269531251	1198.340942382813	1294.984008789063	-301.3730773925782	1017.274108886719	1165.242431640625	-415.8262939453126	1033.660278320313	1296.057006835938	-400.8148803710939	1122.142944335938	1298.878051757813	-503.1232299804689	1157.967651367188	1311.46435546875	-479.4149780273439	1210.128295898438	1037.905517578125	-574.6982421875001	1181.138427734375	989.3363037109377	-509.6347656250001	1189.826538085938	987.2192993164065	-560.1079711914064	1394.152709960938	897.4777832031252	-469.1921386718751	1384.198120117188	868.268493652344	-543.1564941406251	1467.30712890625	854.8074340820315	-452.0997314453126	1428.481811523438	804.1235351562502	-531.6000366210939	997.305603027344	1157.6630859375	-209.4856109619141	1023.722900390625	1281.394653320313	-222.993637084961	1091.44677734375	1278.565063476563	-115.2360458374024	1142.076293945313	1284.341186523438	-120.5789489746094	1053.2529296875	990.2691040039065	-66.12117004394533	1034.987915039063	979.0335083007815	-145.74169921875	1024.271484375	975.7913208007815	-100.2223358154297	1098.902954101563	766.2683105468751	-77.48404693603517	1037.844482421875	780.3731079101565	-23.75242424011231	1096.77001953125	671.5262451171876	-55.86188125610353	1006.58349609375	706.4370727539064	-23.53096389770508	
100	0.99	1220.845458984375	847.9727172851565	-437.2818908691407	1053.510009765625	892.8350219726565	-338.9859008789063	1059.122924804688	883.8734130859377	-250.6394195556641	1239.4912109375	854.7168579101565	-199.0018615722657	1119.701171875	779.3778076171877	-488.7300720214845	1000.367858886719	447.2529602050782	-444.7135009765626	1028.797119140625	429.1130981445314	-333.5958862304688	959.0789794921877	397.0631408691407	-446.0525512695314	1009.373046875	354.3677673339844	-403.8548889160157	807.6653442382815	110.0916442871094	-395.6819152832032	835.224792480469	114.2739562988282	-310.2166748046876	755.4169921875001	90.88130187988283	-348.5477905273438	923.9326782226565	28.9931755065918	-321.3911743164063	934.4305419921877	33.93058395385743	-384.3357238769532	877.1889648437502	24.56458282470704	-426.421600341797	1159.101440429688	753.2414550781251	-129.7927551269532	1309.64501953125	434.2669067382814	-158.6252899169922	1333.972534179688	431.4615783691407	-277.8278808593751	1319.062622070313	370.3179016113282	-157.491439819336	1386.663452148438	393.2175598144532	-199.6279907226563	1449.274047851563	80.29145812988283	-195.104721069336	1485.77978515625	118.414291381836	-271.0471801757813	1440.861328125	28.252347946167	-258.5267944335938	1604.879150390625	114.4078369140625	-240.1552429199219	1591.687622070313	115.0544891357422	-183.7871246337891	1552.417236328125	71.06319427490236	-154.3426055908203	1082.90771484375	1352.576416015625	-301.8960876464844	1025.599243164063	1118.980712890625	-312.3248291015626	1264.005126953125	1132.253051757813	-308.9332580566407	1213.417358398438	1292.882202148438	-299.5351257324219	1032.46142578125	1162.880615234375	-413.9315490722657	1048.578979492188	1293.799926757813	-399.0021057128907	1137.051635742188	1296.6103515625	-501.2855529785157	1172.838134765625	1309.325561523438	-477.5588684082032	1225.551025390625	1035.919677734375	-572.8696899414064	1196.888793945313	987.364196777344	-507.6175537109376	1205.460571289063	985.133239746094	-558.1534423828126	1410.628295898438	896.7199707031252	-467.8465881347657	1400.652954101563	867.4277954101565	-541.7394409179689	1484.13720703125	854.6292114257815	-451.0248413085939	1445.353637695313	803.6215820312502	-530.2883911132814	1012.559631347656	1155.084594726563	-207.9571380615235	1038.743408203125	1278.957763671875	-221.2786254882813	1106.344848632813	1276.235107421875	-113.5047302246094	1156.926025390625	1282.075561523438	-118.7175827026367	1067.6337890625	988.0025024414065	-65.08290863037111	1049.56787109375	977.0366210937502	-144.7483673095703	1038.702392578125	973.7780761718752	-99.3267517089844	1112.038818359375	763.8238525390626	-76.71875000000001	1050.937255859375	778.237731933594	-23.04924774169922	1109.060791015625	668.9825439453126	-55.43864059448244	1019.208862304688	704.5526123046876	-22.95322418212891	
